<svg xmlns="http://www.w3.org/2000/svg" xmlns:xlink="http://www.w3.org/1999/xlink" fill="none" version="1.1" width="76" height="69" viewBox="0 0 76 69"><g><g style="mix-blend-mode:passthrough"><ellipse cx="46.5" cy="28.5" rx="3" ry="3" fill="#292929" fill-opacity="0.9200000166893005"/></g><g style="mix-blend-mode:passthrough"><ellipse cx="29.5" cy="28.5" rx="3" ry="3" fill="#292929" fill-opacity="0.9200000166893005"/></g><g style="mix-blend-mode:passthrough"><ellipse cx="38.5" cy="40.5" rx="4" ry="4" fill="#292929" fill-opacity="0.9200000166893005"/></g><g style="mix-blend-mode:passthrough"><path d="M68,43.5L68,44.5L68,47.12132L66.5607,48.56066L65.5607,49.56066L64.3885,50.73278L61.8541,52L57.1459,52L54.61146,50.73278L53.43934,49.56066L52.267218,48.38854L51,45.8541L51,42.5L54,42.5L54,45.5L52.5,45.5L53.84164,44.82918L54.84164,46.82918L53.5,47.5L54.56066,46.43934L55.56066,47.43934L56.56066,48.43934L55.5,49.5L56.17082,48.15836L58.17082,49.15836L57.5,50.5L57.5,49L61.5,49L61.5,50.5L60.82918,49.15836L62.8292,48.15836L63.5,49.5L62.43934,48.43934L63.4393,47.43934L64.4393,46.43934L65.4393,45.43934L66.5,46.5L65,46.5L65,44.5L65,43.5L68,43.5Z" transform="matrix(-1,0,0,1,105,0)" fill="#292929" fill-opacity="0.9200000166893005"/></g><g style="mix-blend-mode:passthrough"><path d="M40,43.5L40,44.5L40,47.12132L38.5607,48.56066L37.5607,49.56066L36.3885,50.73278L33.8541,52L29.1459,52L26.61146,50.73278L25.43934,49.56066L24.267218,48.38854L23,45.8541L23,42.5L26,42.5L26,45.5L24.5,45.5L25.841639999999998,44.82918L26.841639999999998,46.82918L25.5,47.5L26.56066,46.43934L27.56066,47.43934L28.56066,48.43934L27.5,49.5L28.17082,48.15836L30.17082,49.15836L29.5,50.5L29.5,49L33.5,49L33.5,50.5L32.82918,49.15836L34.8292,48.15836L35.5,49.5L34.43934,48.43934L35.4393,47.43934L36.4393,46.43934L37.4393,45.43934L38.5,46.5L37,46.5L37,44.5L37,43.5L40,43.5Z" fill="#292929" fill-opacity="0.9200000166893005"/></g><g style="mix-blend-mode:passthrough"><path d="M73.5,8.5L73.5,28.5L78.5,33.5L85.5,33.5L91.5,28.5L91.5,6.5L90.5,2.5L79.5,2.5L73.5,8.5Z" transform="matrix(-1,0,0,1,147,0)" fill="#FFD98E" fill-opacity="1"/><path d="M81.26777,4.2677700000000005L75.26777,10.267769999999999L73.5,8.5L76,8.5L76,28.5L73.5,28.5L75.26777,26.7322L80.26777,31.7322L78.5,33.5L78.5,31L85.5,31L85.5,33.5L83.8995,31.5794L89.8995,26.5794L91.5,28.5L89,28.5L89,6.5L91.5,6.5L89.0746,7.10634L88.0746,3.106339L90.5,2.5L90.5,5L79.5,5L79.5,2.5L81.26777,4.2677700000000005ZM78.46447,0L92.4519,0L94,6.19224L94,29.6709L86.4051,36L77.46447,36L71,29.5355L71,7.46447L77.73223,0.7322299999999999L78.46447,0Z" transform="matrix(-1,0,0,1,147,0)" fill="#292929" fill-opacity="0.9200000166893005"/></g><g style="mix-blend-mode:passthrough"><path d="M2.5,8.5L2.5,28.5L7.5,33.5L14.5,33.5L20.5,28.5L20.5,6.5L19.5,2.5L8.5,2.5L2.5,8.5Z" fill="#FFD98E" fill-opacity="1"/><path d="M8.5,0L21.4519,0L23,6.19224L23,29.6709L15.4051,36L6.46447,36L0,29.5355L0,7.46447L7.46447,0L8.5,0ZM8.5,5L8.5,2.5L10.267769999999999,4.2677700000000005L4.2677700000000005,10.267769999999999L2.5,8.5L5,8.5L5,28.5L2.5,28.5L4.2677700000000005,26.7322L9.267769999999999,31.7322L7.5,33.5L7.5,31L14.5,31L14.5,33.5L12.8995,31.5794L18.8995,26.5794L20.5,28.5L18,28.5L18,6.5L20.5,6.5L18.0746,7.10634L17.0746,3.106339L19.5,2.5L19.5,5L8.5,5Z" fill="#292929" fill-opacity="0.9200000166893005"/></g><g style="mix-blend-mode:passthrough"><path d="M11.5,9.5L11.5,46.5L12.5,50.5L14.5,54.5L16.5,57.5L19.5,60.5L23.5,63.5L27.5,65.5L31.5,66.5L44.5,66.5L48.5,65.5L52.5,63.5L56.5,60.5L59.5,57.5L61.5,54.5L63.5,50.5L64.5,46.5L64.5,9.5L11.5,9.5Z" fill="#FFD98E" fill-opacity="1"/><path d="M9,46.5L9,7L67,7L67,46.8078L65.8588,51.3726L63.6665,55.7572L61.4428,59.0927L58.1421,62.3934L53.8197,65.6353L49.3726,67.8588L44.8078,69L31.1922,69L26.6274,67.8588L22.180300000000003,65.6353L17.85786,62.3934L14.55719,59.0927L12.333538,55.7572L10.1412,51.3726L9,46.8078L9,46.5ZM14,46.5L11.5,46.5L13.92536,45.8937L14.92536,49.8937L12.5,50.5L14.73607,49.382L16.736069999999998,53.382L14.5,54.5L16.58013,53.1133L18.58013,56.1133L16.5,57.5L18.26777,55.7322L21.26777,58.7322L19.5,60.5L21,58.5L25,61.5L23.5,63.5L24.618000000000002,61.2639L28.618,63.2639L27.5,65.5L28.1063,63.0746L32.106300000000005,64.0746L31.5,66.5L31.5,64L44.5,64L44.5,66.5L43.8937,64.0746L47.8937,63.0746L48.5,65.5L47.382,63.2639L51.382,61.2639L52.5,63.5L51,61.5L55,58.5L56.5,60.5L54.7322,58.7322L57.7322,55.7322L59.5,57.5L57.4199,56.1133L59.4199,53.1133L61.5,54.5L59.2639,53.382L61.2639,49.382L63.5,50.5L61.0746,49.8937L62.0746,45.8937L64.5,46.5L62,46.5L62,9.5L64.5,9.5L64.5,12L11.5,12L11.5,9.5L14,9.5L14,46.5Z" fill="#292929" fill-opacity="0.9200000166893005"/></g></g></svg>